<svg width="60" height="113" viewBox="0 0 60 113" fill="none" xmlns="http://www.w3.org/2000/svg">
<path d="M28.0889 57.682C31.0387 57.2751 33.882 56.8319 35.1608 56.5606L36.6333 46.0642C36.6333 46.0473 36.6454 46.0328 36.6502 46.0182C36.6526 45.9964 36.6454 45.9819 36.6502 45.9674L37.7207 41.0728C35.478 42.2159 33.124 45.1512 32.2424 46.4445L28.084 57.4543L28.0889 57.682Z" fill="#996AEB"/>
<path d="M28.0889 50.3605L29.3168 47.1055H28.0889V50.3605Z" fill="#E293B8"/>
<path d="M53.4411 71.2684C53.4411 71.2684 50.5809 51.9733 45.7032 42.3318C45.7032 42.3318 46.0568 41.4938 45.2818 40.5445L45.197 40.002L44.6448 40.203L46.8221 65.0902C46.8414 65.3156 46.7997 65.542 46.7012 65.7458C46.6028 65.9495 46.4513 66.1229 46.2626 66.2478L45.9502 66.4488C46.0707 66.61 46.1482 66.7992 46.1755 66.9986C46.4588 69.1226 46.9747 70.9244 47.5196 72.8208C48.2946 75.5187 49.0938 78.3136 49.2319 82.1498C49.2416 82.363 49.8591 102.179 52.1091 109.047L59.319 107.868C59.3141 107.868 55.2284 83.4286 53.4411 71.2684Z" fill="#E293B8"/>
<path d="M44.2598 64.5719L42.1285 40.186C41.5834 40.0263 41.001 40.0484 40.4695 40.249L39.106 46.4466L36.4008 69.5852L39.353 67.8123L44.2598 64.5719ZM14.9091 38.6699C14.5533 40.2109 14.3481 41.7828 14.2963 43.3635C14.2963 43.3635 14.0687 43.6469 13.6376 44.6011H30.4793C31.2591 43.5088 33.0537 41.2202 35.248 39.6702C30.2056 39.038 21.2132 38.762 15.2457 38.7402C15.1246 38.7426 15.0205 38.7062 14.9091 38.6699Z" fill="#996AEB"/>
<path d="M36.1901 37.2993C37.5003 37.4906 38.6071 37.7159 39.3652 37.9847C40.2372 37.628 41.1874 37.5061 42.1212 37.6311L44.3276 36.3959C44.529 36.2915 44.755 36.2438 44.9815 36.2579C44.9912 36.2409 44.9912 36.2143 44.9912 36.1998L46.9577 25.064C46.9577 25.064 48.268 20.4455 48.8589 20.0362C48.8589 20.0362 46.4782 10.1767 49.6993 2.31773L48.4448 1.12859L42.114 0C42.114 0 42.5572 2.15063 42.2375 3.62797C42.2375 3.62797 41.5812 7.2075 40.8086 8.10359C40.2734 8.71633 39.5153 10.7386 36.3983 11.9955C36.5425 12.1179 36.6578 12.2705 36.7361 12.4426C36.8144 12.6147 36.8537 12.8019 36.8512 12.9909C36.827 13.1629 36.0908 29.6631 36.1901 37.2993ZM35.5119 73.0583C35.3101 73.1777 35.0793 73.2392 34.8448 73.2362C34.6103 73.2332 34.3811 73.1658 34.1823 73.0413C33.9856 72.9143 33.8284 72.7346 33.7286 72.5227C33.6289 72.3107 33.5906 72.0751 33.618 71.8425L35.1051 59.118C33.2378 59.4861 30.3122 59.9099 28.0913 60.2102V71.0336C24.783 98.2603 26.8198 109.878 26.8416 109.987C26.8793 110.217 26.8498 110.454 26.7569 110.668C26.7811 110.687 26.815 110.697 26.8392 110.711V111.968C26.8392 111.968 32.8963 112.67 35.5095 112.07C36.3402 105.192 35.7323 80.4983 35.5265 73.0607L35.5119 73.0583Z" fill="#E293B8"/>
<path d="M25.5919 60.3652C25.297 60.2363 25.0628 59.9992 24.9375 59.7027C24.8123 59.4062 24.8055 59.073 24.9187 58.7716L25.5871 56.9916L25.5847 47.1055H19.3023C19.2999 47.1297 19.3096 47.1418 19.3072 47.1612L17.1638 61.4527C15.5218 76.9066 13.4995 109.956 13.4826 110.287C13.4801 110.321 13.4608 110.338 13.4583 110.365C15.7301 110.629 20.4842 111.05 21.918 110.212C21.918 110.212 23.0538 110.014 24.3132 110.06C23.9765 107.909 22.5137 96.1315 25.5895 70.8738L25.5919 60.3652ZM45.1147 73.5112C44.6158 71.7602 44.1144 69.9292 43.7996 67.8585L40.0142 70.3288L37.9823 71.564C38.13 76.2987 38.8396 101.77 38.1348 111.033C39.4039 110.781 41.1234 110.498 41.6126 110.692L49.755 109.902C47.367 102.695 46.7543 83.0752 46.7301 82.2299C46.5993 78.7061 45.8776 76.1849 45.1147 73.5112Z" fill="#996AEB"/>
<path d="M16.7812 47.1055H13.1048C12.9532 47.1033 12.8032 47.0746 12.6616 47.0207C11.1479 51.1645 8.6025 59.7646 5.08109 77.1876C5.08109 77.1876 1.27633 102.591 0 106.41C0 106.41 1.2739 107.512 4.28672 107.994C6.52695 108.345 9.45742 108.088 11.0849 108.449C11.5184 101.491 13.2404 74.6761 14.6741 61.1378L16.7812 47.1055ZM11.9955 19.4695C11.9955 19.4695 13.0273 21.7702 13.8168 27.963L15.0713 36.2748C15.1295 36.2652 15.1827 36.2385 15.253 36.2385H15.2554C16.6189 36.2434 20.0919 36.2724 24.0298 36.4056C24.4125 31.0315 23.9911 12.5187 23.9862 12.3273C23.9854 12.0954 24.0501 11.8679 24.1727 11.671C21.545 10.3196 20.4382 8.45477 20.4382 8.45477C20.4382 8.45477 17.825 5.0593 17.2849 0L12.7681 1.36351C12.7681 1.36351 11.16 0.767734 10.092 2.31773C10.092 2.31773 14.1413 5.89 11.9955 19.4695Z" fill="#E293B8"/>
<path d="M26.5365 36.5025C28.9923 36.6139 31.4819 36.7713 33.6834 36.9942C33.6108 29.1303 34.3277 13.0442 34.3398 12.8796C34.3422 12.7827 34.3858 12.6955 34.4076 12.6035C33.1488 12.8698 31.8675 13.015 30.581 13.037C29.2032 13.0774 27.8272 12.9083 26.5002 12.5356C26.5437 14.8171 26.8925 31.1332 26.5365 36.5025ZM30.2032 35.0615C29.7326 35.0443 29.287 34.8453 28.9602 34.5063C28.6334 34.1673 28.4507 33.7148 28.4507 33.2439C28.4507 32.773 28.6334 32.3205 28.9602 31.9815C29.287 31.6425 29.7326 31.4434 30.2032 31.4263C30.4516 31.4106 30.7005 31.4459 30.9347 31.5302C31.1688 31.6144 31.3832 31.7457 31.5647 31.916C31.7461 32.0864 31.8907 32.2921 31.9896 32.5204C32.0884 32.7488 32.1394 32.995 32.1394 33.2439C32.1394 33.4927 32.0884 33.739 31.9896 33.9673C31.8907 34.1957 31.7461 34.4014 31.5647 34.5717C31.3832 34.7421 31.1688 34.8734 30.9347 34.9576C30.7005 35.0419 30.4516 35.0772 30.2032 35.0615ZM30.2032 16.5656C30.6869 16.5663 31.1505 16.759 31.492 17.1015C31.8336 17.444 32.0251 17.9081 32.0244 18.3917C32.0238 18.8754 31.8311 19.339 31.4886 19.6806C31.1461 20.0221 30.682 20.2136 30.1984 20.213C29.7147 20.2123 29.2511 20.0196 28.9095 19.6771C28.568 19.3347 28.3765 18.8706 28.3771 18.3869C28.3777 17.9032 28.5705 17.4396 28.913 17.0981C29.2554 16.7565 29.7195 16.565 30.2032 16.5656ZM30.2008 23.4438C31.2034 23.4438 32.0244 24.2575 32.0244 25.2602C32.0254 25.6205 31.9195 25.973 31.72 26.2731C31.5206 26.5732 31.2366 26.8073 30.9041 26.946C30.5715 27.0847 30.2053 27.1216 29.8518 27.052C29.4982 26.9825 29.1732 26.8097 28.918 26.5554C28.6627 26.3011 28.4885 25.9769 28.4176 25.6236C28.3467 25.2703 28.3821 24.904 28.5194 24.5709C28.6568 24.2377 28.8898 23.9528 29.1891 23.7522C29.4884 23.5516 29.8405 23.4442 30.2008 23.4438Z" fill="#996AEB"/>
</svg>
