<svg width="253" height="202" viewBox="0 0 253 202" fill="none" xmlns="http://www.w3.org/2000/svg">
<path d="M160.108 147.323C190.228 147.323 214.645 122.906 214.645 92.7862C214.645 62.6666 190.228 38.2498 160.108 38.2498C129.989 38.2498 105.572 62.6666 105.572 92.7862C105.572 122.906 129.989 147.323 160.108 147.323Z" fill="#FFE58A"/>
<path d="M160.105 24.1885C158.535 24.1885 157.264 22.9156 157.264 21.3476V2.84091C157.264 1.27293 158.535 0 160.105 0C161.676 0 162.946 1.27293 162.946 2.84091V21.3476C162.946 22.9156 161.676 24.1885 160.105 24.1885Z" fill="#FFE58A"/>
<path d="M250.059 95.6354H231.55C229.979 95.6354 228.709 94.3625 228.709 92.7945C228.709 91.2265 229.979 89.9536 231.55 89.9536H250.059C251.63 89.9536 252.9 91.2265 252.9 92.7945C252.9 94.3625 251.63 95.6354 250.059 95.6354Z" fill="#FFE58A"/>
<path d="M109.584 45.1146C108.857 45.1146 108.132 44.8364 107.575 44.2829L94.4891 31.1967C93.3791 30.0868 93.3791 28.2884 94.4891 27.1784C95.599 26.0685 97.3974 26.0685 98.5074 27.1784L111.594 40.2646C112.703 41.3745 112.703 43.1729 111.594 44.2829C111.04 44.8393 110.312 45.1146 109.584 45.1146Z" fill="#FFE58A"/>
<path d="M210.624 45.1146C209.896 45.1146 209.171 44.8364 208.614 44.2829C207.504 43.1729 207.504 41.3745 208.614 40.2646L221.703 27.1784C222.813 26.0685 224.612 26.0685 225.722 27.1784C226.832 28.2884 226.832 30.0868 225.722 31.1967L212.633 44.2829C212.076 44.8393 211.351 45.1146 210.624 45.1146Z" fill="#FFE58A"/>
<path d="M24.8826 131.14C24.7926 129.794 24.7308 128.44 24.7308 127.068C24.7308 93.6826 51.7967 66.6167 85.1823 66.6167C109.334 66.6167 130.173 80.7847 139.854 101.261C147.146 96.0852 156.036 93.011 165.661 93.011C187.927 93.011 206.336 109.323 209.722 130.637C225.053 134.832 236.338 148.826 236.338 165.489C236.338 185.466 220.144 201.66 200.168 201.66H36.1703C16.194 201.66 0 185.466 0 165.489C0 149.458 10.4391 135.883 24.8826 131.14Z" fill="#B3E4FE"/>
</svg>
