<svg width="237" height="177" viewBox="0 0 237 177" fill="none" xmlns="http://www.w3.org/2000/svg">
<path d="M18.1582 47.0816C18.0936 46.0981 18.0486 45.1089 18.0486 44.1114C18.0486 19.7487 37.7973 0 62.16 0C79.7843 0 94.9892 10.338 102.054 25.2788C107.376 21.5021 113.861 19.2569 120.883 19.2569C137.131 19.2569 150.563 31.1601 153.033 46.7134C164.219 49.7735 172.453 59.9851 172.453 72.1439C172.453 86.7194 160.636 98.5355 146.061 98.5355H26.3915C11.8161 98.5383 0 86.7222 0 72.1468C0 60.4487 7.61791 50.5435 18.1582 47.0816Z" fill="#9DD0EB"/>
<path d="M38.8883 110.031C38.804 108.769 38.745 107.502 38.745 106.22C38.745 74.9647 64.0827 49.627 95.3384 49.627C117.95 49.627 137.457 62.893 146.523 82.06C153.348 77.2127 161.671 74.3353 170.683 74.3353C191.53 74.3353 208.761 89.6048 211.931 109.561C226.284 113.49 236.847 126.59 236.847 142.188C236.847 160.889 221.687 176.049 202.987 176.049H49.4539C30.7533 176.049 15.5934 160.889 15.5934 142.188C15.5934 127.18 25.3666 114.473 38.8883 110.031Z" fill="#B3E4FE"/>
</svg>
