<svg width="253" height="233" viewBox="0 0 253 233" fill="none" xmlns="http://www.w3.org/2000/svg">
<path d="M26.6276 69.0445C26.532 67.603 26.4646 66.153 26.4646 64.689C26.4646 28.9627 55.4272 0 91.1536 0C117 0 139.297 15.1628 149.658 37.0723C157.461 31.531 166.973 28.2433 177.272 28.2433C201.1 28.2433 220.799 45.699 224.418 68.5078C240.825 72.9954 252.9 87.9699 252.9 105.802C252.9 127.178 235.571 144.507 214.195 144.507H38.7049C17.3293 144.507 0 127.178 0 105.802C0 88.6471 11.1726 74.1222 26.6276 69.0445Z" fill="#B3E4FE"/>
<path d="M68.2015 183.355H76.6484C78.236 183.355 79.523 182.071 79.523 180.481C79.523 178.893 78.236 177.606 76.6484 177.606H68.2043L72.4277 170.291C73.2202 168.917 72.7481 167.158 71.374 166.366C69.9943 165.568 68.2409 166.046 67.4484 167.42L63.225 174.734L59.0016 167.42C58.2063 166.043 56.4501 165.571 55.076 166.366C53.7019 167.161 53.2298 168.917 54.0223 170.291L58.2457 177.606H49.8016C48.214 177.606 46.927 178.89 46.927 180.481C46.927 182.068 48.214 183.355 49.8016 183.355H58.2485L54.0251 190.672C53.2326 192.047 53.7047 193.806 55.0788 194.598C55.5312 194.859 56.0258 194.983 56.5119 194.983C57.5067 194.983 58.4705 194.466 59.0044 193.547L63.2278 186.233L67.4512 193.547C67.9851 194.472 68.949 194.983 69.9437 194.983C70.4298 194.983 70.9244 194.859 71.3768 194.598C72.7509 193.803 73.223 192.047 72.4306 190.672L68.2015 183.355Z" fill="#B3E4FE"/>
<path d="M105.386 214.968H96.9422L101.166 207.653C101.958 206.279 101.486 204.52 100.112 203.728C98.7321 202.93 96.9759 203.407 96.1863 204.781L91.9629 212.096L87.7394 204.781C86.9442 203.407 85.1879 202.933 83.8139 203.728C82.4398 204.523 81.9677 206.279 82.7601 207.653L86.9835 214.968H78.5395C76.9518 214.968 75.6649 216.252 75.6649 217.842C75.6649 219.433 76.9518 220.717 78.5395 220.717H86.9863L82.7629 228.034C81.9705 229.408 82.4426 231.167 83.8167 231.96C84.2691 232.221 84.7636 232.345 85.2498 232.345C86.2445 232.345 87.2083 231.828 87.7422 230.909L91.9657 223.594L96.1891 230.909C96.723 231.833 97.6868 232.345 98.6816 232.345C99.1677 232.345 99.6623 232.221 100.115 231.96C101.489 231.165 101.961 229.408 101.168 228.034L96.945 220.717H105.392C106.979 220.717 108.266 219.433 108.266 217.842C108.266 216.252 106.974 214.968 105.386 214.968Z" fill="#B3E4FE"/>
<path d="M139.873 177.609H131.429L135.653 170.294C136.448 168.92 135.976 167.161 134.599 166.369C133.228 165.574 131.466 166.043 130.673 167.423L126.45 174.734L122.227 167.42C121.431 166.043 119.669 165.571 118.301 166.366C116.927 167.161 116.455 168.917 117.247 170.292L121.471 177.606H113.027C111.439 177.606 110.152 178.89 110.152 180.481C110.152 182.068 111.439 183.355 113.027 183.355H121.473L117.25 190.673C116.458 192.047 116.927 193.806 118.304 194.598C118.756 194.859 119.251 194.983 119.737 194.983C120.732 194.983 121.695 194.469 122.229 193.547L126.45 186.233L130.673 193.547C131.207 194.472 132.171 194.983 133.166 194.983C133.655 194.983 134.149 194.859 134.599 194.598C135.973 193.803 136.445 192.047 135.653 190.673L131.429 183.355H139.873C141.461 183.355 142.748 182.071 142.748 180.481C142.748 178.893 141.461 177.609 139.873 177.609Z" fill="#B3E4FE"/>
<path d="M174.36 214.968H165.916L170.14 207.653C170.935 206.279 170.463 204.52 169.086 203.728C167.715 202.935 165.953 203.399 165.161 204.782L160.937 212.096L156.714 204.782C155.916 203.402 154.157 202.938 152.788 203.728C151.414 204.523 150.942 206.279 151.734 207.653L155.958 214.968H147.514C145.926 214.968 144.639 216.252 144.639 217.842C144.639 219.433 145.923 220.717 147.514 220.717H155.961L151.737 228.034C150.942 229.408 151.414 231.167 152.791 231.96C153.243 232.221 153.738 232.345 154.224 232.345C155.219 232.345 156.183 231.831 156.717 230.909L160.94 223.595L165.163 230.909C165.697 231.833 166.661 232.345 167.656 232.345C168.145 232.345 168.639 232.221 169.089 231.96C170.463 231.165 170.935 229.408 170.143 228.034L165.919 220.717H174.366C175.954 220.717 177.241 219.433 177.241 217.842C177.241 216.252 175.948 214.968 174.36 214.968Z" fill="#B3E4FE"/>
<path d="M203.098 177.609H194.654L198.878 170.294C199.673 168.92 199.201 167.161 197.824 166.369C196.453 165.574 194.691 166.043 193.898 167.423L189.675 174.734L185.452 167.42C184.656 166.043 182.894 165.574 181.526 166.366C180.152 167.161 179.68 168.917 180.472 170.292L184.696 177.606H176.252C174.664 177.606 173.377 178.89 173.377 180.481C173.377 182.068 174.661 183.355 176.252 183.355H184.698L180.475 190.672C179.68 192.047 180.152 193.806 181.529 194.598C181.981 194.859 182.476 194.983 182.962 194.983C183.957 194.983 184.92 194.469 185.454 193.547L189.678 186.233L193.901 193.547C194.435 194.472 195.399 194.983 196.394 194.983C196.883 194.983 197.377 194.859 197.827 194.598C199.201 193.803 199.673 192.047 198.881 190.672L194.657 183.355H203.104C204.692 183.355 205.979 182.071 205.979 180.481C205.973 178.893 204.686 177.609 203.098 177.609Z" fill="#B3E4FE"/>
</svg>
