<svg width="253" height="253" viewBox="0 0 253 253" fill="none" xmlns="http://www.w3.org/2000/svg">
<path d="M126.439 201.398C167.838 201.398 201.398 167.838 201.398 126.439C201.398 85.0398 167.838 51.4792 126.439 51.4792C85.0397 51.4792 51.4792 85.0398 51.4792 126.439C51.4792 167.838 85.0397 201.398 126.439 201.398Z" fill="#FFE58A"/>
<path d="M126.45 31.0589C124.899 31.0589 123.64 29.8001 123.64 28.2489V2.81C123.64 1.25888 124.899 0 126.45 0C128.001 0 129.26 1.25888 129.26 2.81V28.2489C129.26 29.8001 128.001 31.0589 126.45 31.0589Z" fill="#FFE58A"/>
<path d="M126.45 252.9C124.899 252.9 123.64 251.644 123.64 250.09V224.651C123.64 223.097 124.899 221.841 126.45 221.841C128.001 221.841 129.26 223.097 129.26 224.651V250.09C129.26 251.644 128.001 252.9 126.45 252.9Z" fill="#FFE58A"/>
<path d="M28.2489 129.26H2.81C1.25888 129.26 0 128.001 0 126.45C0 124.899 1.25888 123.64 2.81 123.64H28.2489C29.8001 123.64 31.0589 124.899 31.0589 126.45C31.0589 128.001 29.8001 129.26 28.2489 129.26Z" fill="#FFE58A"/>
<path d="M250.09 129.26H224.651C223.097 129.26 221.841 128.001 221.841 126.45C221.841 124.899 223.097 123.64 224.651 123.64H250.09C251.644 123.64 252.9 124.899 252.9 126.45C252.9 128.001 251.644 129.26 250.09 129.26Z" fill="#FFE58A"/>
<path d="M195.888 59.8221C195.169 59.8221 194.449 59.5467 193.901 58.9988C192.803 57.9001 192.803 56.1242 193.901 55.0254L211.888 37.0386C212.987 35.9399 214.763 35.9399 215.861 37.0386C216.96 38.1373 216.96 39.9133 215.861 41.012L197.875 58.9988C197.327 59.5467 196.607 59.8221 195.888 59.8221Z" fill="#FFE58A"/>
<path d="M39.0225 216.685C38.3031 216.685 37.5837 216.409 37.0358 215.861C35.9371 214.763 35.9371 212.987 37.0358 211.888L55.0226 193.901C56.1213 192.802 57.8972 192.802 58.9959 193.901C60.0947 195 60.0947 196.776 58.9959 197.875L41.0091 215.861C40.4612 216.412 39.7418 216.685 39.0225 216.685Z" fill="#FFE58A"/>
<path d="M57.0121 59.8221C56.2927 59.8221 55.5734 59.5467 55.0254 58.9988L37.0386 41.012C35.9399 39.9133 35.9399 38.1373 37.0386 37.0386C38.1373 35.9399 39.9132 35.9399 41.0119 37.0386L58.9988 55.0254C60.0975 56.1242 60.0975 57.9001 58.9988 58.9988C58.448 59.5467 57.7286 59.8221 57.0121 59.8221Z" fill="#FFE58A"/>
<path d="M213.875 216.685C213.155 216.685 212.436 216.409 211.888 215.861L193.901 197.875C192.803 196.776 192.803 195 193.901 193.901C195 192.802 196.776 192.802 197.875 193.901L215.861 211.888C216.96 212.987 216.96 214.763 215.861 215.861C215.313 216.412 214.594 216.685 213.875 216.685Z" fill="#FFE58A"/>
</svg>
