<svg width="110" height="253" viewBox="0 0 110 253" fill="none" xmlns="http://www.w3.org/2000/svg">
<path d="M90.8435 156.199V35.8416C90.8435 16.0451 74.7956 0 55.002 0C35.2083 0 19.1604 16.0451 19.1604 35.8416V156.199C6.81048 166.824 -0.77933 182.824 0.0636702 200.581C1.38156 228.304 23.7941 251.076 51.4979 252.793C83.4617 254.774 110.002 229.437 110.002 197.9C110.002 181.22 102.567 166.285 90.8435 156.199Z" fill="#9CBCCD"/>
<path d="M65.8036 169.435V71.0508H44.1975V169.435C31.5076 174.256 22.8528 187.272 24.8029 202.045C26.6013 215.676 37.7683 226.612 51.4277 228.166C69.8528 230.26 85.4708 215.903 85.4708 197.9C85.4736 184.881 77.2937 173.798 65.8036 169.435Z" fill="#E16F6F"/>
<path d="M54.8896 36.5635C48.9858 36.5635 44.2003 41.3489 44.2003 47.2527V71.0506H65.5788V47.2527C65.5788 41.3517 60.7934 36.5635 54.8896 36.5635Z" fill="#FEFEFE"/>
</svg>
