<svg width="253" height="252" viewBox="0 0 253 252" fill="none" xmlns="http://www.w3.org/2000/svg">
<path d="M26.6276 69.0445C26.532 67.603 26.4646 66.153 26.4646 64.689C26.4646 28.9627 55.4272 0 91.1536 0C117 0 139.297 15.1628 149.658 37.0723C157.461 31.531 166.973 28.2433 177.272 28.2433C201.1 28.2433 220.799 45.699 224.418 68.5078C240.825 72.9954 252.9 87.9699 252.9 105.802C252.9 127.178 235.571 144.507 214.195 144.507H38.7049C17.3293 144.504 0 127.178 0 105.802C0 88.6471 11.1726 74.1222 26.6276 69.0445Z" fill="#9CBCCD"/>
<path d="M30.1597 199.642C29.8506 199.642 29.5331 199.592 29.2212 199.485C27.7206 198.968 26.9254 197.332 27.4424 195.832L36.6902 169.008C37.2044 167.51 38.8342 166.706 40.3432 167.229C41.8437 167.746 42.6389 169.381 42.1219 170.882L32.8742 197.706C32.4667 198.897 31.3512 199.642 30.1597 199.642Z" fill="#9CBCCD"/>
<path d="M12.3219 251.371C12.0128 251.371 11.6952 251.321 11.3833 251.214C9.88278 250.697 9.08754 249.062 9.60458 247.561L18.8523 220.737C19.3665 219.236 20.9963 218.435 22.5053 218.958C24.0058 219.475 24.8011 221.111 24.284 222.611L15.0363 249.435C14.6289 250.627 13.5161 251.371 12.3219 251.371Z" fill="#9CBCCD"/>
<path d="M48.9867 228.383C48.6776 228.383 48.3601 228.332 48.0482 228.225C46.5477 227.708 45.7524 226.073 46.2695 224.572L55.5172 197.748C56.0314 196.248 57.6556 195.444 59.1702 195.969C60.6707 196.486 61.466 198.122 60.9489 199.622L51.704 226.444C51.2938 227.635 50.181 228.383 48.9867 228.383Z" fill="#9CBCCD"/>
<path d="M69.8004 251.371C69.4913 251.371 69.1738 251.321 68.8619 251.214C67.3613 250.697 66.5661 249.062 67.0831 247.561L76.3308 220.737C76.8451 219.236 78.4749 218.435 79.9838 218.958C81.4844 219.475 82.2796 221.111 81.7626 222.611L72.5149 249.435C72.1074 250.627 70.9918 251.371 69.8004 251.371Z" fill="#9CBCCD"/>
<path d="M106.465 228.383C106.156 228.383 105.839 228.332 105.527 228.225C104.026 227.708 103.231 226.073 103.748 224.572L112.996 197.748C113.51 196.248 115.134 195.444 116.649 195.969C118.149 196.486 118.944 198.122 118.427 199.622L109.18 226.447C108.772 227.635 107.657 228.383 106.465 228.383Z" fill="#9CBCCD"/>
<path d="M145.114 199.642C144.802 199.642 144.487 199.591 144.175 199.485C142.678 198.968 141.88 197.332 142.397 195.832L151.644 169.007C152.161 167.507 153.791 166.714 155.297 167.229C156.795 167.746 157.593 169.381 157.076 170.882L147.828 197.706C147.421 198.897 146.305 199.642 145.114 199.642Z" fill="#9CBCCD"/>
<path d="M127.276 251.371C126.967 251.371 126.65 251.321 126.338 251.214C124.837 250.697 124.042 249.061 124.559 247.561L133.807 220.737C134.324 219.236 135.956 218.444 137.46 218.958C138.957 219.475 139.755 221.11 139.238 222.611L129.991 249.435C129.583 250.627 128.47 251.371 127.276 251.371Z" fill="#9CBCCD"/>
<path d="M163.941 228.383C163.629 228.383 163.314 228.332 163.003 228.225C161.505 227.708 160.707 226.073 161.224 224.572L170.474 197.748C170.991 196.25 172.621 195.455 174.127 195.969C175.625 196.486 176.423 198.122 175.906 199.622L166.656 226.447C166.248 227.635 165.135 228.383 163.941 228.383Z" fill="#9CBCCD"/>
<path d="M202.59 199.642C202.278 199.642 201.963 199.591 201.651 199.485C200.153 198.968 199.355 197.332 199.872 195.832L209.12 169.007C209.637 167.507 211.273 166.714 212.773 167.229C214.271 167.746 215.069 169.381 214.552 170.882L205.304 197.706C204.897 198.897 203.784 199.642 202.59 199.642Z" fill="#9CBCCD"/>
<path d="M184.755 251.371C184.443 251.371 184.128 251.321 183.816 251.214C182.318 250.697 181.52 249.061 182.037 247.561L191.285 220.737C191.802 219.236 193.438 218.444 194.938 218.958C196.436 219.475 197.234 221.11 196.717 222.611L187.469 249.435C187.062 250.627 185.949 251.371 184.755 251.371Z" fill="#9CBCCD"/>
<path d="M105.038 86.6829L89.9762 128.411H110.798L89.0208 190.569L163.879 110.174L137.887 110.765L153.426 86.6829H105.038Z" fill="#FFE58A"/>
</svg>
