<svg width="497" height="265" viewBox="0 0 497 265" fill="none" xmlns="http://www.w3.org/2000/svg">
<g clip-path="url(#clip0_32_431)">
<path d="M408.145 235.819H301.182V215.989C301.176 208.491 304.145 201.296 309.436 195.985C314.727 190.673 321.909 187.677 329.406 187.655H408.145V235.819Z" fill="#ADAEC1"/>
<path d="M332.363 159.625H322.101V197.524H332.363V159.625Z" fill="#8F7D58"/>
<path d="M408.145 159.625H397.883V197.524H408.145V159.625Z" fill="#8F7D58"/>
<path d="M401.04 162.783H330.784V163.573H401.04V162.783Z" fill="#8F7D58"/>
<path d="M401.04 175.416H330.784V176.206H401.04V175.416Z" fill="#8F7D58"/>
<path d="M401.04 181.733H330.784V182.522H401.04V181.733Z" fill="#8F7D58"/>
<path d="M398.061 233.805C397.995 234.324 397.979 234.849 398.015 235.371H425.689C425.94 234.864 426.158 234.34 426.341 233.805C429.725 224.081 424.16 207.896 431.216 183.898C436.454 166.09 446.232 152.162 450.79 145.673C456.392 137.692 462.74 130.327 470.094 118.561C471.688 116.016 473.329 113.256 475.025 110.245C475.594 109.238 482.146 97.5557 481.55 97.192C481.27 97.0242 479.536 99.383 478.949 100.175C473.767 107.186 470.756 110.254 466.44 115.298C463.821 118.356 460.726 122.132 456.383 127.959C445.244 142.885 439.68 150.344 437.741 155.928C435.417 162.647 432.613 169.19 429.352 175.507C426.723 180.616 425.409 183.17 424.691 182.965C422.659 182.378 425.4 161.224 434.012 140.079C435.485 136.48 436.585 134.177 438.673 129.823C442.066 122.719 460.959 83.2352 474.848 59.601C476.591 56.6269 478.259 53.9138 479.797 51.5364C480.096 51.0889 480.385 50.6507 480.664 50.2312C482.172 47.8792 483.871 45.6558 485.744 43.5838C486.499 42.8006 488.419 40.5817 492.269 36.1252C493.798 34.3538 494.916 33.0393 495.671 32.0789C495.783 31.9391 495.885 31.7993 495.969 31.6781C496.883 30.4847 497.144 29.9066 496.929 29.599C496.622 29.1608 495.438 29.4125 494.142 29.8694C494.003 29.916 493.853 29.9719 493.714 30.0278C492.306 30.5499 490.88 31.2306 490.405 31.4636C486.042 33.5614 481.783 37.3186 477.84 41.7844C476.377 43.4346 474.969 45.178 473.608 46.9681C469.525 52.4595 465.819 58.2221 462.516 64.216C458.974 70.593 456.849 75.2826 456.849 75.2826C446.959 97.1268 435.988 122.113 435.411 121.899C434.777 121.665 446.941 90.5633 450.483 73.6697C451.666 68.0105 451.881 63.9456 450.324 63.1625C450.268 63.132 450.208 63.107 450.147 63.0879C449.958 63.0258 449.758 63.0036 449.56 63.0226C448.57 62.9196 447.571 62.9668 446.596 63.1625C444.704 63.5727 442.55 68.8403 440.453 76.2335C435 95.2901 429.818 128.425 429.818 128.425C424.635 161.569 416.768 188.391 414.904 188.093C413.87 187.925 415.352 179.6 413.972 165.717C413.003 155.984 411.903 156.282 408.38 138.68C402.787 110.757 399.991 96.7725 399.991 96.7259C400.063 95.7251 400.038 94.7197 399.916 93.7238C399.73 92.3906 399.254 90.9921 398.126 90.1997C396.411 88.9877 393.652 89.5098 392.534 90.1997C391.639 90.759 391.182 91.7846 391.08 93.2576C390.465 102.525 403.775 129.394 408.38 165.717C410.673 183.814 411.931 193.687 408.38 206.739C404.865 219.68 398.742 227.922 398.061 233.805Z" fill="#CDC8B4"/>
<path d="M336.667 0.231033C347.394 -1.16056 360.717 3.95911 361.511 9.55422C362.164 14.1599 354.225 18.365 354.973 18.8774C355.672 19.3562 360.592 14.3029 366.741 14.2158C376.033 14.0842 387.186 25.305 383.74 31.9299C380.974 37.2478 369.122 38.9873 369.356 39.3884C369.578 39.7667 378.608 35.6395 387.662 36.5914C400.627 37.9544 413.041 49.6667 409.891 57.1024C406.372 65.411 383.588 67.9838 383.74 68.2903C383.9 68.6143 406.671 60.302 415.122 65.4933C420.79 68.9752 419.977 77.0919 416.429 82.275C409.024 93.0933 385.923 96.9271 374.587 91.5982C365.772 87.4547 369.483 71.6803 360.586 58.6043C349.659 42.5466 332.888 46.6617 332.744 34.7268C332.731 33.6415 332.689 30.147 335.359 29.1329C339.624 27.5134 347.855 33.3416 348.435 32.8622C349.063 32.3436 338.045 26.6682 331.437 17.0128C329.358 13.9758 324.629 7.06639 328.821 3.02801C330.956 0.97194 334.521 0.509482 336.667 0.231033Z" fill="#CCD9CB"/>
<path d="M88.855 187.655H167.594C175.091 187.677 182.273 190.673 187.564 195.985C192.855 201.296 195.824 208.491 195.818 215.989V235.819H88.855V187.655Z" fill="#ADAEC1"/>
<path d="M164.637 197.524H174.899V159.625H164.637V197.524Z" fill="#8F7D58"/>
<path d="M88.855 197.524H99.1172V159.625H88.855V197.524Z" fill="#8F7D58"/>
<path d="M95.9594 163.573H166.216V162.783H95.9594V163.573Z" fill="#8F7D58"/>
<path d="M95.9594 176.206H166.216V175.416H95.9594V176.206Z" fill="#8F7D58"/>
<path d="M95.9594 182.522H166.216V181.733H95.9594V182.522Z" fill="#8F7D58"/>
<path d="M98.9388 233.805C99.0049 234.324 99.0205 234.849 98.9854 235.371H71.3113C71.0596 234.864 70.8416 234.34 70.6588 233.805C67.2752 224.081 72.8399 207.896 65.7839 183.898C60.5455 166.09 50.7677 152.162 46.2097 145.673C40.6078 137.692 34.2601 130.327 26.9058 118.561C25.312 116.016 23.6715 113.256 21.975 110.245C21.4065 109.238 14.8537 97.5557 15.4503 97.1921C15.7299 97.0242 17.4636 99.383 18.0508 100.175C23.2333 107.186 26.2441 110.254 30.5597 115.298C33.1789 118.356 36.2735 122.132 40.6171 127.959C51.7558 142.885 57.3204 150.344 59.2592 155.928C61.5832 162.647 64.3867 169.19 67.6481 175.507C70.2766 180.616 71.5909 183.17 72.3086 182.965C74.3406 182.378 71.6002 161.224 62.9876 140.079C61.5148 136.48 60.415 134.177 58.3271 129.823C54.9342 122.719 36.0405 83.2352 22.1521 59.601C20.4091 56.6269 18.7407 53.9138 17.2027 51.5364C16.9044 51.0889 16.6154 50.6507 16.3358 50.2312C14.8284 47.8792 13.1293 45.6558 11.2558 43.5838C10.5008 42.8006 8.58068 40.5817 4.73111 36.1252C3.20244 34.3538 2.0839 33.0393 1.32891 32.0789C1.21708 31.9391 1.11454 31.7993 1.03068 31.6781C0.117185 30.4847 -0.143773 29.9066 0.0705951 29.599C0.378201 29.1608 1.56193 29.4125 2.85757 29.8694C2.99741 29.916 3.14654 29.9719 3.28636 30.0278C4.69385 30.5499 6.11994 31.2306 6.59532 31.4636C10.9576 33.5614 15.2173 37.3186 19.1601 41.7844C20.6235 43.4346 22.031 45.178 23.3918 46.9681C27.4755 52.4595 31.1813 58.2221 34.4839 64.216C38.0258 70.593 40.1511 75.2826 40.1511 75.2826C50.0407 97.1268 61.0116 122.113 61.5895 121.899C62.2233 121.665 50.0593 90.5633 46.5174 73.6697C45.3336 68.0105 45.1192 63.9456 46.6758 63.1625C46.7323 63.132 46.7916 63.107 46.8529 63.0879C47.042 63.0258 47.242 63.0036 47.4401 63.0226C48.4296 62.9196 49.4289 62.9668 50.4042 63.1625C52.2964 63.5727 54.4496 68.8403 56.5468 76.2335C61.9996 95.2901 67.1821 128.425 67.1821 128.425C72.3646 161.569 80.2315 188.391 82.0957 188.093C83.1304 187.925 81.6483 179.6 83.0278 165.717C83.9972 155.984 85.0971 156.282 88.6205 138.68C94.2131 110.757 97.0094 96.7725 97.0094 96.7259C96.9372 95.7252 96.9621 94.7198 97.084 93.7238C97.2704 92.3906 97.7457 90.9921 98.8736 90.1997C100.589 88.9877 103.348 89.5098 104.466 90.1997C105.361 90.7591 105.818 91.7847 105.92 93.2577C106.535 102.525 93.2251 129.394 88.6205 165.717C86.3275 183.814 85.0692 193.687 88.6205 206.739C92.1345 219.68 98.2584 227.922 98.9388 233.805Z" fill="#CCD9CB"/>
<path d="M450.435 235.45C450.435 235.508 450.424 235.565 450.402 235.618C450.381 235.672 450.348 235.721 450.307 235.761C450.266 235.802 450.218 235.835 450.164 235.856C450.111 235.878 450.054 235.889 449.996 235.889H45.9653V235.011H449.996C450.053 235.011 450.111 235.022 450.164 235.044C450.217 235.066 450.266 235.098 450.306 235.139C450.347 235.18 450.379 235.228 450.401 235.282C450.424 235.335 450.435 235.392 450.435 235.45Z" fill="#E6E6E6"/>
<path d="M255.714 43.6112C257.218 44.4566 259.645 41.1129 260.195 42.7485C260.745 44.384 259.413 50.9832 258.726 52.566C258.384 53.3527 257.901 54.0722 257.566 54.8616C257.182 55.6386 257.103 56.5318 257.347 57.3637C257.863 58.7644 259.565 59.3342 260.409 60.5653C261.391 61.9992 260.994 63.9305 260.535 65.6071C260.197 67.0689 259.665 68.479 258.955 69.8005C258.232 71.1314 257.038 72.1442 255.607 72.6405C253.779 73.1839 251.825 72.5381 250.062 71.809C248.345 71.1567 246.726 70.2719 245.249 69.1794C243.767 68.076 242.666 66.5365 242.102 64.7764C241.47 62.5641 241.998 60.143 243.092 58.1191C244.266 56.1359 245.742 54.3474 247.466 52.8174C250.264 50.1355 253.239 47.6439 256.37 45.3592" fill="#2F2E41"/>
<path d="M233.346 157.126L236.481 186.396C236.481 186.396 229.166 201.553 237.004 219.846L237.527 230.299L246.41 229.254L244.32 220.369L249.022 184.305L252.68 158.172L233.346 157.126Z" fill="#FFB6B6"/>
<path d="M258.428 156.604C258.428 156.604 256.338 179.601 260.518 191.622C260.518 191.622 258.428 209.915 264.176 229.254V243.652L273.582 241.798L273.06 187.964L275.672 158.694L258.428 156.604Z" fill="#FFB6B6"/>
<path d="M259.765 67.0924C258.475 68.7092 256.662 69.8254 254.638 70.2486C252.614 70.6718 250.505 70.3754 248.676 69.4105C243.296 66.5747 235.951 63.3247 234.653 65.9217C233.387 68.4915 232.675 71.2984 232.562 74.1608L230.472 122.892C230.472 122.892 229.427 142.568 242.491 140.831C255.554 139.095 275.934 146.412 275.934 146.412L270.969 94.9295L269.924 74.5456L265.221 72.455C265.221 72.455 264.699 68.7963 263.131 68.7963C261.564 68.7963 261.185 65.2817 259.807 67.039L259.765 67.0924Z" fill="#FFD863"/>
<path d="M232.301 122.108L223.418 159.217C223.418 159.217 244.842 171.761 254.771 159.74L256.338 153.99L257.383 160.262C257.383 160.262 272.537 169.148 276.717 163.398L275.934 146.412L266.267 126.812L232.301 122.108Z" fill="#2F2E41"/>
<path d="M237.219 224.14C237.219 224.14 233.869 226.641 234.914 229.777C235.959 232.913 243.797 244.934 250.59 243.366C257.383 241.798 254.248 238.139 254.248 238.139L246.41 226.641C246.41 226.641 243.275 227.163 241.707 228.209C240.139 229.254 237.219 224.14 237.219 224.14Z" fill="#2F2E41"/>
<path d="M264.176 239.185C264.176 239.185 258.428 244.934 261.564 247.547C264.699 250.161 286.123 252.251 285.601 249.115C285.078 245.979 274.105 237.094 274.105 237.094C274.105 237.094 270.969 236.049 269.924 238.662C268.879 241.275 264.176 239.185 264.176 239.185Z" fill="#2F2E41"/>
<path d="M266.789 182.214C263.11 184.433 262.747 185.48 260.518 186.395C259.39 186.859 257.278 187.496 253.203 186.918C247.587 186.122 244.125 183.854 234.391 178.556C227.449 174.777 224.055 173.124 219.238 172.284C215.628 171.654 213.53 171.883 211.922 172.284C206.312 173.68 203.25 178.009 202.516 179.078C199.981 182.776 199.66 186.387 199.381 189.531C199.029 193.492 198.521 199.216 201.471 203.643C205.168 209.191 210.318 206.732 219.238 212.006C229.096 217.835 227.447 223.583 235.436 226.641C245.659 230.553 256.788 224.369 257.383 224.027C267.967 217.956 270.133 206.938 275.672 207.825C278.982 208.354 279.312 212.464 284.555 213.574C285.537 213.782 289.575 214.637 292.394 212.006C294.126 210.39 294.072 214.008 293.177 211.745C292.029 208.839 289.712 203.166 288.213 199.985C287.413 198.285 288.315 197.76 287.691 193.19C287.386 190.958 287.232 189.831 286.646 188.486C285.193 185.154 282.373 183.433 280.375 182.214C277.944 180.731 275.555 179.273 272.537 179.601C270.81 179.789 269.47 180.597 266.789 182.214Z" fill="#3F3D56"/>
<path d="M203.039 194.758C202.112 195.518 201.891 197.057 201.471 199.985C201.083 202.693 201.319 204.354 201.471 207.302C201.7 211.726 201.339 211.315 201.471 217.233C201.58 222.102 201.634 224.537 201.994 226.641C202.641 230.424 202.986 228.97 206.174 238.662C206.821 240.628 207.336 242.297 208.787 242.843C210.604 243.527 212.698 241.999 212.967 241.798C213.408 241.468 214.96 240.304 215.057 238.662C215.181 236.577 212.822 236.049 210.877 232.913C209.663 230.954 209.371 228.994 208.787 225.073C208.232 221.344 207.954 219.479 208.787 217.755C210.307 214.61 213.783 213.635 214.012 213.574C216.093 213.024 216.765 213.803 219.238 213.574C221.55 213.36 225.36 212.271 226.031 210.438C227.87 205.413 207.467 191.13 203.039 194.758Z" fill="#3F3D56"/>
<path d="M211.399 187.441C210.472 188.201 210.252 189.74 209.832 192.668C209.443 195.376 209.68 197.037 209.832 199.985C210.06 204.409 209.7 203.997 209.832 209.916C209.94 214.785 209.994 217.22 210.354 219.323C211.001 223.106 211.346 221.653 214.535 231.345C215.182 233.311 215.697 234.98 217.147 235.526C218.965 236.21 221.059 234.682 221.328 234.481C221.768 234.151 223.321 232.987 223.418 231.345C223.541 229.26 221.182 228.732 219.238 225.595C218.023 223.637 217.731 221.676 217.147 217.755C216.592 214.027 216.314 212.162 217.147 210.438C218.667 207.292 222.144 206.317 222.373 206.257C224.454 205.707 225.126 206.486 227.598 206.257C229.911 206.043 233.72 204.954 234.391 203.121C236.23 198.096 215.827 183.813 211.399 187.441Z" fill="#3F3D56"/>
<path d="M227.076 213.051C226.488 213.949 225.813 216.263 224.463 220.891C223.861 222.955 219.964 236.536 218.715 240.753C218.345 242.287 217.63 243.717 216.625 244.934C215.559 246.159 214.99 246.121 214.535 247.025C213.349 249.376 215.663 252.694 216.102 253.297C216.614 253.998 218.991 257.256 222.373 256.955C222.726 256.924 225.011 256.721 225.508 255.387C226.27 253.343 221.792 251.425 221.85 248.07C221.885 246.088 223.472 245.267 225.508 242.843C229.876 237.643 228.013 234.941 231.256 230.822C236.107 224.661 245.121 224.548 246.41 224.55C249.748 224.555 254.393 224.562 257.383 227.686C261.552 232.042 259.829 239.662 261.564 251.206C261.831 252.791 262.18 254.361 262.609 255.91C263.869 260.584 264.875 261.791 265.221 262.182C266.152 263.308 267.38 264.151 268.766 264.613C270.152 265.075 271.64 265.138 273.06 264.795C274.287 264.517 275.407 264.264 276.195 263.227C276.588 262.713 276.842 262.107 276.934 261.466C277.025 260.825 276.951 260.172 276.717 259.569C276.088 258.157 274.792 258.387 273.06 256.955C271.837 255.945 271.199 254.54 269.924 251.729C269.055 249.879 268.355 247.955 267.834 245.979C267.047 242.949 266.95 240.608 266.789 236.049C266.653 232.208 266.719 229.015 266.789 225.595C266.871 221.614 266.982 220.314 266.789 217.755C266.586 215.071 266.389 212.458 265.744 210.961C262.274 202.905 234.736 201.366 227.076 213.051Z" fill="#3F3D56"/>
<path d="M205.129 177.51C202.896 176.275 202.577 173.384 201.994 168.102C201.569 164.255 201.316 161.964 202.516 159.217C203.598 156.791 205.43 154.776 207.742 153.468C208.36 153.128 212.419 150.975 216.625 152.422C217.212 152.624 218.766 153.779 221.85 156.081C225.531 158.828 226.071 159.351 226.553 160.262C227.843 162.699 227.706 165.993 226.553 166.534C225.677 166.945 224.164 165.792 223.418 164.966C222.526 163.979 222.66 163.381 221.85 162.353C221.208 161.538 220.604 161.254 218.715 160.262C214.036 157.807 213.799 157.481 212.967 157.649C210.894 158.068 209.906 160.589 209.832 160.785C209.199 162.465 209.633 163.993 210.354 166.534C210.788 167.96 211.312 169.356 211.922 170.716C213.284 173.974 213.643 174.218 213.49 174.897C212.987 177.123 208.079 179.142 205.129 177.51Z" fill="#3F3D56"/>
<path d="M273.404 146.665C273.323 149.651 274.797 152.114 276.697 152.165C278.597 152.217 280.203 149.838 280.284 146.851C280.333 145.658 280.095 144.471 279.591 143.389L279.777 130.732L273.837 130.771L274.285 143.244C273.722 144.298 273.42 145.471 273.404 146.665Z" fill="#FFB6B6"/>
<path d="M269.14 74.2842C269.14 74.2842 276.979 76.8975 277.501 85.7828C278.024 94.6681 278.546 99.8947 278.546 99.8947L279.33 103.525C279.33 103.525 281.681 109.303 280.636 113.484C279.591 117.665 280.763 134.596 280.763 134.596L273.321 134.39L268.095 115.052L269.14 74.2842Z" fill="#FFD863"/>
<path d="M258.69 186.657C257.826 186.8 257.406 191.74 258.69 196.065C259.431 198.329 260.425 200.502 261.653 202.544C261.902 202.96 262.141 203.339 262.87 204.427C266.434 209.751 268.235 212.409 269.14 212.267C270.348 212.079 267.043 209.222 266.789 206.49C266.318 201.411 264.038 200.783 259.996 193.423C257.809 189.441 259.364 186.546 258.69 186.657Z" fill="#6C63FF"/>
<path d="M276.979 185.089C277.415 182.865 274.932 179.776 272.276 179.34C268.403 178.703 265.041 183.849 263.915 187.18C262.367 191.761 264.105 195.698 264.96 197.633C266.032 200.06 266.833 200.219 267.05 200.246C268.631 200.444 270.505 197.548 271.231 195.019C271.869 192.795 271.149 192.491 271.753 190.838C272.998 187.436 276.512 187.462 276.979 185.089Z" fill="#2F2E41"/>
<path d="M262.87 54.6268C262.87 56.7857 262.23 58.896 261.031 60.6911C259.832 62.4861 258.127 63.8852 256.133 64.7113C254.139 65.5375 251.945 65.7536 249.828 65.3325C247.711 64.9113 245.767 63.8717 244.241 62.3452C242.714 60.8186 241.675 58.8737 241.254 56.7563C240.833 54.6389 241.049 52.4442 241.875 50.4497C242.701 48.4551 244.1 46.7504 245.894 45.551C247.689 44.3516 249.799 43.7114 251.957 43.7114C254.851 43.7114 257.627 44.8614 259.674 46.9085C261.72 48.9555 262.87 51.7319 262.87 54.6268Z" fill="#FFB6B6"/>
<path d="M239.655 71.7217C242.213 75.3948 243.493 79.8074 243.298 84.2797C246.186 82.8804 248.135 79.9241 248.798 76.7838C249.462 73.6435 248.956 70.3462 247.89 67.3189C247.879 67.2886 247.868 67.2584 247.857 67.2282C247.057 65.0222 246.994 62.6159 247.678 60.3712C248.363 58.1265 249.757 56.1647 251.652 54.7809C254.299 52.8744 256.565 50.4878 258.331 47.7452C259.322 46.1984 260.165 44.258 259.424 42.5766C258.742 41.0274 256.98 40.3032 255.358 39.8187C251.655 38.7124 247.721 38.0829 243.92 38.7829C240.119 39.483 236.46 41.6692 234.664 45.0918C232.868 48.5145 233.338 53.1855 236.254 55.7228C235.79 55.8729 235.39 56.1754 235.119 56.5812C234.848 56.9869 234.723 57.4723 234.762 57.9586C234.801 58.4449 235.004 58.9037 235.336 59.2605C235.669 59.6174 236.112 59.8515 236.595 59.9248C235.971 59.9027 235.603 60.7239 235.826 61.3068C236.114 61.8661 236.589 62.3067 237.168 62.552C237.947 62.9794 238.811 63.4263 238.814 64.5455C238.808 64.9956 238.661 65.4325 238.394 65.7946C237.76 66.6785 236.738 67.0766 235.753 67.4503C236.794 67.7724 237.727 68.3722 238.452 69.1853C239.177 69.9983 239.667 70.9937 239.869 72.0644" fill="#2F2E41"/>
<path d="M245.606 128.206L244.077 128.554L259.459 196.239L260.988 195.891L245.606 128.206Z" fill="#6C63FF"/>
<path d="M242.854 133.125C245.251 134.906 248.114 135.112 249.247 133.585C250.379 132.059 249.354 129.378 246.955 127.597C246.007 126.872 244.898 126.385 243.723 126.177L233.468 118.759L230.091 123.647L240.559 130.44C241.098 131.506 241.885 132.426 242.854 133.125Z" fill="#FFB6B6"/>
<path d="M236.393 72.7163C236.393 72.7163 228.121 72.9776 226.553 78.7269C223.378 90.1174 221.968 101.927 222.373 113.745C222.373 113.745 219.76 124.721 226.553 124.199L235.959 128.38L242.229 120.017L237.004 113.745L236.393 72.7163Z" fill="#FFD863"/>
</g>
<defs>
<clipPath id="clip0_32_431">
<rect width="497" height="265" fill="white"/>
</clipPath>
</defs>
</svg>
