<svg width="99" height="172" viewBox="0 0 99 172" fill="none" xmlns="http://www.w3.org/2000/svg">
<path d="M6.1875 90.0156C5.36699 90.0156 4.58008 89.6897 3.99989 89.1095C3.4197 88.5293 3.09375 87.7424 3.09375 86.9219V79.1875C3.09375 78.367 3.4197 77.5801 3.99989 76.9999C4.58008 76.4197 5.36699 76.0938 6.1875 76.0938H92.8125C93.633 76.0938 94.4199 76.4197 95.0001 76.9999C95.5803 77.5801 95.9062 78.367 95.9062 79.1875V86.9219C95.9062 87.7424 95.5803 88.5293 95.0001 89.1095C94.4199 89.6897 93.633 90.0156 92.8125 90.0156H6.1875Z" fill="#171717"/>
<path d="M61.875 76.0938H37.125V90.0156H61.875V76.0938Z" fill="black"/>
<path d="M92.8125 90.0156C94.8702 100.304 95.9065 110.77 95.9062 121.263V165.812C95.9062 166.633 95.5803 167.42 95.0001 168C94.4199 168.58 93.633 168.906 92.8125 168.906H57.2344C56.4139 168.906 55.627 168.58 55.0468 168C54.4666 167.42 54.1406 166.633 54.1406 165.812L52.5938 134.875C52.5938 134.054 52.2678 133.268 51.6876 132.687C51.1074 132.107 50.3205 131.781 49.5 131.781C48.6795 131.781 47.8926 132.107 47.3124 132.687C46.7322 133.268 46.4062 134.054 46.4062 134.875L44.8594 165.812C44.8594 166.633 44.5334 167.42 43.9532 168C43.373 168.58 42.5861 168.906 41.7656 168.906H6.1875C5.36699 168.906 4.58008 168.58 3.99989 168C3.4197 167.42 3.09375 166.633 3.09375 165.812V121.263C3.09349 110.77 4.12977 100.304 6.1875 90.0156H92.8125Z" fill="#EBBE6A"/>
<path d="M43.3125 114.766C45.0211 114.766 46.4062 113.381 46.4062 111.672C46.4062 109.963 45.0211 108.578 43.3125 108.578C41.6039 108.578 40.2188 109.963 40.2188 111.672C40.2188 113.381 41.6039 114.766 43.3125 114.766Z" fill="#BEE5F9"/>
<path d="M55.6875 114.766C57.3961 114.766 58.7812 113.381 58.7812 111.672C58.7812 109.963 57.3961 108.578 55.6875 108.578C53.9789 108.578 52.5938 109.963 52.5938 111.672C52.5938 113.381 53.9789 114.766 55.6875 114.766Z" fill="#BEE5F9"/>
<path d="M9.28127 113.219C11.7428 113.219 14.1035 112.241 15.8441 110.5C17.5847 108.76 18.5625 106.399 18.5625 103.938V90.0156H6.18752C4.65733 97.6687 3.69205 105.424 3.2995 113.219H9.28127ZM89.7188 113.219H95.7005C95.308 105.424 94.3427 97.6687 92.8125 90.0156H80.4375V103.938C80.4375 106.399 81.4154 108.76 83.1559 110.5C84.8965 112.241 87.2572 113.219 89.7188 113.219Z" fill="#965B45"/>
<path d="M76.5703 148.797C74.0678 150.8 70.9582 151.891 67.7531 151.891H67.699C64.9104 151.892 62.184 151.067 59.8641 149.519L53.0733 144.512L54.1406 165.813C54.1406 166.633 54.4666 167.42 55.0468 168C55.627 168.58 56.4139 168.906 57.2344 168.906H92.8125C93.633 168.906 94.4199 168.58 95.0001 168C95.5803 167.42 95.9062 166.633 95.9062 165.813V148.797L90.6964 146.713C89.0285 146.046 87.2488 145.704 85.4525 145.703H85.3875C82.1824 145.703 79.0728 146.795 76.5703 148.797ZM6.1875 168.906H41.7656C42.5861 168.906 43.373 168.58 43.9532 168C44.5334 167.42 44.8594 166.633 44.8594 165.813L45.9252 144.512L39.1359 149.519C36.8169 151.066 34.0916 151.891 31.3041 151.891H31.2469C28.0418 151.891 24.9322 150.8 22.4297 148.797C19.9272 146.795 16.8176 145.703 13.6125 145.703H13.5506C11.7543 145.704 9.97459 146.046 8.30672 146.713L3.09375 148.797V165.813C3.09375 166.633 3.4197 167.42 3.99989 168C4.58008 168.58 5.36699 168.906 6.1875 168.906Z" fill="#EB886A"/>
<path d="M55.6875 108.578C56.232 108.581 56.7658 108.729 57.2344 109.007V82.2812H54.1406V109.007C54.6092 108.729 55.143 108.581 55.6875 108.578ZM43.3125 108.578C43.857 108.581 44.3908 108.729 44.8594 109.007V82.2812H41.7656V109.007C42.2342 108.729 42.768 108.581 43.3125 108.578Z" fill="#457896"/>
<path opacity="0.05" d="M15.263 90.0156V103.938C15.263 106.399 14.2852 108.76 12.5446 110.5C10.804 112.241 8.44331 113.219 5.98177 113.219H9.28125C11.7428 113.219 14.1035 112.241 15.8441 110.5C17.5847 108.76 18.5625 106.399 18.5625 103.938V90.0156H15.263ZM83.737 90.0156V103.938C83.737 106.399 84.7148 108.76 86.4554 110.5C88.196 112.241 90.5567 113.219 93.0182 113.219H89.7188C87.2572 113.219 84.8965 112.241 83.1559 110.5C81.4153 108.76 80.4375 106.399 80.4375 103.938V90.0156H83.737ZM95.9062 86.9219V85.375H3.09375V86.9219C3.09375 87.7424 3.4197 88.5293 3.99989 89.1095C4.58008 89.6897 5.36699 90.0156 6.1875 90.0156H92.8125C93.633 90.0156 94.4199 89.6897 95.0001 89.1095C95.5803 88.5293 95.9062 87.7424 95.9062 86.9219Z" fill="#457896"/>
<path d="M47.0875 41.1549C47.0875 51.7161 38.7062 60.2684 28.3562 60.2684C18.0062 60.2684 9.625 51.7161 9.625 41.1549C9.625 30.5936 18.0062 30.3066 28.3562 30.3066C36.1623 30.3066 42.8488 30.4697 45.6638 35.0813C47.8637 34.4617 50.1953 34.4594 52.3964 35.0744C55.2139 30.4697 61.8976 30.3066 69.7 30.3066C80.05 30.3066 88.4312 30.5936 88.4312 41.1549C88.4312 51.7161 80.05 60.2684 69.7 60.2684C59.35 60.2684 50.9687 51.7161 50.9687 41.1549C50.9687 40.8667 50.9749 40.5863 50.9873 40.3134C49.7062 39.955 48.3492 39.9575 47.0692 40.3211C47.0813 40.5915 47.0875 40.8693 47.0875 41.1549Z" fill="#252829"/>
<path d="M69.6716 57.6274C78.1935 57.6274 85.1122 50.5675 85.1122 41.8717C85.1122 33.1759 78.1935 32.9463 69.6716 32.9463C61.1497 32.9463 54.231 33.1759 54.231 41.8717C54.231 50.5675 61.1497 57.6274 69.6716 57.6274ZM28.356 57.6271C36.8778 57.6271 43.7966 50.5672 43.7966 41.8714C43.7966 33.1756 36.8778 33.1386 28.356 33.1386C19.8342 33.1386 12.9154 33.1756 12.9154 41.8714C12.9154 50.5672 19.8342 57.6271 28.356 57.6271Z" fill="#457896"/>
<path d="M38.8747 44.7702C40.8153 44.1388 41.7997 41.6133 41.0403 39.1739C40.281 36.7058 38.0872 35.2421 36.1185 35.8448C34.1778 36.4762 33.1935 38.973 33.9528 41.4411C34.7122 43.9092 36.906 45.3729 38.8747 44.7702ZM80.4153 44.7705C82.356 44.1391 83.3403 41.6136 82.581 39.1742C81.8216 36.7061 79.5997 35.2424 77.6591 35.8738C75.7185 36.5052 74.7341 39.002 75.4935 41.4701C76.2528 43.9382 78.4466 45.4018 80.4153 44.7705Z" fill="#D3D3D3"/>
</svg>
