<svg width="173" height="99" viewBox="0 0 173 99" fill="none" xmlns="http://www.w3.org/2000/svg">
<path d="M144.57 34.9917L149.701 40.1227C157.873 48.2953 163.771 58.459 166.812 69.6092L169.906 75.7967L160.625 80.4373L157.531 74.2498C152.392 68.0827 147.984 61.3421 144.394 54.1621L143.609 52.5936L145.156 62.6344C146.187 69.3399 146.704 76.1142 146.703 82.8984C146.701 84.2963 146.145 85.6363 145.156 86.6248L146.361 89.0364C146.586 89.485 146.703 89.9796 146.703 90.4812C146.703 91.1598 146.49 91.8212 146.093 92.3718C145.696 92.9223 145.136 93.334 144.493 93.5487C139.81 95.1104 134.906 95.9065 129.969 95.9061H117.031C112.094 95.9065 107.19 95.1104 102.507 93.5487C101.864 93.334 101.304 92.9223 100.907 92.3718C100.51 91.8212 100.297 91.1598 100.297 90.4812C100.297 89.9796 100.414 89.485 100.639 89.0364L101.844 86.6248C100.853 85.6344 100.297 84.2912 100.297 82.8907C100.297 76.1091 100.814 69.3373 101.844 62.6344L103.391 52.5936L102.606 54.1621C99.0161 61.3421 94.6076 68.0827 89.4688 74.2498L86.375 80.4373L77.0938 75.7967L80.1875 69.6092C83.2287 58.459 89.1268 48.2953 97.299 40.1227L102.43 34.9917H144.57Z" fill="#A37765"/>
<path d="M166.812 69.6092C163.771 58.459 157.873 48.2953 149.701 40.1227L144.57 34.9917H107.069L101.94 40.1227C93.7675 48.2953 87.8693 58.459 84.8281 69.6092L80.8062 77.653L86.375 80.4373L89.4687 74.2498C94.6076 68.0827 99.0161 61.3421 102.606 54.1621L103.391 52.5936L101.844 62.6344C100.813 69.3399 100.296 76.1142 100.297 82.8984C100.299 84.2963 100.855 85.6363 101.844 86.6248L100.639 89.0364C100.431 89.4506 100.316 89.9045 100.299 90.3674C100.282 90.8302 100.366 91.2912 100.543 91.7192C100.72 92.1471 100.987 92.5319 101.326 92.8476C101.665 93.1632 102.068 93.4023 102.507 93.5487C107.19 95.1104 112.094 95.9065 117.031 95.9061H129.969C134.906 95.9065 139.81 95.1104 144.493 93.5487C144.932 93.4023 145.335 93.1632 145.674 92.8476C146.013 92.5319 146.28 92.1471 146.457 91.7192C146.634 91.2912 146.717 90.8302 146.701 90.3674C146.684 89.9045 146.569 89.4506 146.361 89.0364L145.156 86.6248C146.146 85.6344 146.703 84.2912 146.703 82.8907C146.703 76.1091 146.186 69.3373 145.156 62.6344L143.609 52.5936L144.394 54.1621C147.984 61.3421 152.392 68.0827 157.531 74.2498L160.625 80.4373L169.906 75.7967L166.812 69.6092Z" fill="#BF9377"/>
<path d="M126.594 89.6569H120.406C114.262 89.4112 108.169 88.4334 102.257 86.7441L101.844 86.625L100.639 89.0366C100.431 89.4508 100.316 89.9047 100.299 90.3675C100.282 90.8304 100.366 91.2914 100.543 91.7193C100.72 92.1472 100.987 92.5321 101.326 92.8477C101.665 93.1634 102.068 93.4025 102.507 93.5488C107.19 95.1106 112.094 95.9066 117.031 95.9062H129.969C134.906 95.9066 139.81 95.1106 144.493 93.5488C144.932 93.4025 145.335 93.1634 145.674 92.8477C146.013 92.5321 146.28 92.1472 146.457 91.7193C146.634 91.2914 146.718 90.8304 146.701 90.3675C146.684 89.9047 146.569 89.4508 146.361 89.0366L145.156 86.625L144.74 86.7441C138.829 88.4326 132.737 89.4104 126.594 89.6569Z" fill="#A37765"/>
<path d="M142.062 20.1094H104.938V35.5781H142.062V20.1094Z" fill="#785349"/>
<path d="M134.328 41.7656V34.5464C134.328 33.5894 133.947 32.6717 133.271 31.995C132.594 31.3183 131.676 30.9379 130.719 30.9375H116.281C115.324 30.9379 114.406 31.3183 113.729 31.995C113.053 32.6717 112.672 33.5894 112.672 34.5464V41.7656" fill="#BF9377"/>
<path d="M89.4688 74.25L80.1875 69.6094L77.0938 75.7969L86.375 80.4375" fill="#A37765"/>
<path d="M166.812 69.6094L157.531 74.25L160.625 80.4375L169.906 75.7969" fill="#A37765"/>
<path d="M126.594 30.9375V92.8125C126.594 93.633 126.268 94.4199 125.688 95.0001C125.107 95.5803 124.321 95.9062 123.5 95.9062C122.679 95.9062 121.893 95.5803 121.312 95.0001C120.732 94.4199 120.406 93.633 120.406 92.8125V30.9375" fill="#5E5E5E"/>
<path d="M120.406 30.9375V92.8125C120.406 93.633 120.732 94.4199 121.312 95.0001C121.893 95.5803 122.679 95.9062 123.5 95.9062V30.9375H120.406Z" fill="#4C4C4C"/>
<path d="M109.563 70.936L106.5 71.3735L108.047 82.2016L111.109 81.764L109.563 70.936Z" fill="#A37765"/>
<path d="M137.438 70.9379L135.889 81.7656L138.952 82.2038L140.501 71.3761L137.438 70.9379Z" fill="#A37765"/>
<path d="M123.5 3.09375C126.398 3.09353 129.26 3.73671 131.879 4.97686C134.498 6.21702 136.809 8.02321 138.645 10.2651C139.883 11.7733 141.161 13.3387 142.327 14.7665C145.156 18.2214 146.703 22.5491 146.703 27.0146C146.703 29.6489 146.053 32.2424 144.81 34.565C143.567 36.8875 141.77 38.8673 139.578 40.3286C138.172 41.2657 136.52 41.7657 134.831 41.7656C133.877 41.7656 132.962 41.3867 132.288 40.7122C131.613 40.0378 131.234 39.123 131.234 38.1691C131.235 37.4146 131.472 36.6793 131.913 36.0671C132.354 35.455 132.977 34.9971 133.692 34.7583L136.212 33.9183C137.465 33.501 138.555 32.6999 139.328 31.6285C140.1 30.5571 140.516 29.2697 140.516 27.9489C140.517 27.1229 140.355 26.3048 140.039 25.5414C139.724 24.778 139.261 24.0842 138.678 23.4998C138.094 22.9154 137.401 22.4517 136.638 22.1354C135.875 21.8191 135.057 21.6562 134.231 21.6562H112.769C111.943 21.6562 111.125 21.8191 110.362 22.1354C109.599 22.4517 108.906 22.9154 108.322 23.4998C107.739 24.0842 107.276 24.778 106.961 25.5414C106.645 26.3048 106.483 27.1229 106.484 27.9489C106.484 29.2697 106.9 30.5571 107.672 31.6285C108.445 32.6999 109.535 33.501 110.788 33.9183L113.308 34.7583C114.023 34.9971 114.646 35.455 115.087 36.0671C115.528 36.6793 115.765 37.4146 115.766 38.1691C115.766 39.123 115.387 40.0378 114.712 40.7122C114.038 41.3867 113.123 41.7656 112.169 41.7656C110.48 41.7657 108.828 41.2657 107.422 40.3286C105.23 38.8673 103.433 36.8875 102.19 34.565C100.947 32.2424 100.297 29.6489 100.297 27.0146C100.297 22.5495 101.842 18.2218 104.67 14.7665C105.836 13.3387 107.119 11.7733 108.351 10.2651C110.188 8.02281 112.5 6.21637 115.119 4.9762C117.739 3.73603 120.602 3.09307 123.5 3.09375Z" fill="#916658"/>
<path d="M140.516 27.9487C140.516 29.2695 140.1 30.5569 139.328 31.6283C138.555 32.6997 137.465 33.5008 136.212 33.9181L133.692 34.7581C132.883 35.0287 132.196 35.5785 131.755 36.309C131.313 37.0395 131.146 37.9032 131.283 38.7457C131.42 39.5882 131.852 40.3545 132.502 40.9077C133.152 41.4609 133.977 41.765 134.831 41.7654C136.52 41.7655 138.172 41.2655 139.578 40.3284C141.77 38.8671 143.567 36.8873 144.81 34.5648C146.053 32.2422 146.703 29.6487 146.703 27.0144C146.703 22.5493 145.158 18.2216 142.33 14.7663C141.164 13.3385 139.881 11.7731 138.649 10.2649C136.976 8.22823 134.909 6.55078 132.571 5.3333C130.234 4.11582 127.674 3.38344 125.047 3.18018C122.419 3.38344 119.86 4.11582 117.522 5.3333C115.185 6.55078 113.118 8.22823 111.445 10.2649C110.208 11.7731 108.93 13.3385 107.764 14.7663C104.935 18.2216 103.39 22.5493 103.391 27.0144C103.391 29.6487 104.041 32.2422 105.284 34.5648C106.527 36.8873 108.324 38.8671 110.516 40.3284C111.394 40.9047 112.371 41.3142 113.397 41.5365C114.099 41.2831 114.704 40.8174 115.128 40.2042C115.552 39.5911 115.775 38.861 115.765 38.1154C115.755 37.3698 115.513 36.6458 115.073 36.0441C114.632 35.4424 114.015 34.9929 113.308 34.7581L110.788 33.9181C109.371 33.4456 108.169 32.4848 107.396 31.2073C106.622 29.9299 106.328 28.419 106.567 26.9449C106.805 25.4707 107.56 24.1293 108.696 23.1604C109.832 22.1915 111.276 21.6583 112.769 21.6561H134.231C135.057 21.6561 135.875 21.8189 136.638 22.1352C137.401 22.4515 138.094 22.9152 138.678 23.4996C139.261 24.084 139.724 24.7778 140.039 25.5412C140.355 26.3046 140.517 27.1227 140.516 27.9487Z" fill="#A37765"/>
<g clip-path="url(#clip0_70_194)">
<path d="M33.2871 46.2585L43.7836 75.0971L36.6082 87.9245L25.091 92.1139L12.2941 86.5534L1.78243 57.7299C-1.38632 49.0311 3.10782 39.4182 11.7914 36.2495C20.5055 33.0807 30.1184 37.5596 33.2871 46.2585Z" fill="#1F3E75"/>
<path d="M43.8598 75.0668L12.2027 86.584C11.0297 87.0106 10.4203 88.3055 10.8469 89.4786L13.4672 96.6844C13.8937 97.8575 15.1887 98.4668 16.3617 98.0403L48.0035 86.5231C49.1766 86.0965 49.7859 84.8016 49.3594 83.6286L46.7391 76.4227C46.3277 75.2497 45.0328 74.6403 43.8598 75.0668Z" fill="#87B4DE"/>
<path fill-rule="evenodd" clip-rule="evenodd" d="M39.5637 76.6514L42.8543 85.6701L41.4223 86.1881L38.1317 77.1693L39.5637 76.6514Z" fill="#5F9BD3"/>
<path fill-rule="evenodd" clip-rule="evenodd" d="M32.2664 79.3018L35.557 88.3205L34.125 88.8385L30.8344 79.8197L32.2664 79.3018Z" fill="#5F9BD3"/>
<path fill-rule="evenodd" clip-rule="evenodd" d="M25.1063 81.9072L28.3969 90.926L26.9649 91.4439L23.6742 82.4252L25.1063 81.9072Z" fill="#5F9BD3"/>
<path fill-rule="evenodd" clip-rule="evenodd" d="M17.9461 84.5122L21.2367 93.531L19.8047 94.0489L16.5141 85.0302L17.9461 84.5122Z" fill="#5F9BD3"/>
<path d="M21.7547 70.9231V59.8782C21.7547 56.9532 19.3781 54.5767 16.4531 54.5767C13.5281 54.5767 11.1516 56.9532 11.1516 59.8782V70.9231" fill="#1F3E75"/>
<path d="M22.5164 70.923H20.993V59.8781C20.993 57.3645 18.9516 55.3383 16.4531 55.3383C13.9547 55.3383 11.9133 57.3797 11.9133 59.8781V70.923H10.3898V59.8781C10.3898 56.5266 13.1168 53.8148 16.4531 53.8148C19.8047 53.8148 22.5164 56.5418 22.5164 59.8781V70.923ZM33.2871 46.2586C31.5961 41.6121 28.0769 38.1844 23.8265 36.4629C22.3793 38.1691 21.6023 40.3172 21.6176 42.5719C21.6328 45.1008 22.6383 47.4773 24.4512 49.2445L30.0117 54.6832C31.1086 55.7648 31.7027 57.2273 31.7027 58.7203C30.225 59.223 28.9605 60.3656 28.3969 61.9348L25.7613 69.1406C25.2738 70.466 25.3348 71.9133 25.9441 73.193C26.5383 74.4727 27.6047 75.4477 28.9453 75.9352L35.1914 78.2051L43.7836 75.082L33.2871 46.2586Z" fill="#14294D"/>
<path d="M44.7281 32.8219L40.9348 43.2422L35.4504 37.9407C32.952 35.5184 28.9758 35.5641 26.5231 38.0168C24.0246 40.5153 24.0399 44.5981 26.5688 47.0661L32.1293 52.5047C34.5668 54.8813 35.3742 58.4614 34.2164 61.6606L38.7715 73.5434L54.1277 79.1344L65.7211 73.1321L76.2176 44.2934C79.3863 35.5946 74.8922 25.9817 66.2086 22.8129C57.5098 19.6442 47.8817 24.1231 44.7281 32.8219Z" fill="#1F3E75"/>
<path d="M43.8598 75.0668L35.1914 78.2204L49.2832 83.3543L46.7543 76.4227C46.3277 75.2497 45.0328 74.6403 43.8598 75.0668Z" fill="#5F9BD3"/>
<path d="M34.1555 61.6303L65.7973 73.1475C66.9703 73.5741 67.5797 74.869 67.1531 76.042L64.5328 83.2479C64.1063 84.4209 62.8113 85.0303 61.6383 84.6038L29.9965 73.0866C28.8234 72.66 28.2141 71.3651 28.6406 70.192L31.2609 62.9862C31.6723 61.8131 32.9824 61.2038 34.1555 61.6303Z" fill="#87B4DE"/>
<path fill-rule="evenodd" clip-rule="evenodd" d="M38.4363 63.2144L39.8683 63.7323L36.5777 72.7511L35.1457 72.2331L38.4363 63.2144Z" fill="#5F9BD3"/>
<path fill-rule="evenodd" clip-rule="evenodd" d="M45.7336 65.8652L47.1656 66.3832L43.8902 75.402L42.4582 74.884L45.7336 65.8652Z" fill="#5F9BD3"/>
<path fill-rule="evenodd" clip-rule="evenodd" d="M52.8937 68.4702L54.3258 68.9882L51.0504 78.0069L49.6183 77.489L52.8937 68.4702Z" fill="#5F9BD3"/>
<path fill-rule="evenodd" clip-rule="evenodd" d="M60.0539 71.0752L61.4859 71.5932L58.1953 80.6119L56.7633 80.0939L60.0539 71.0752Z" fill="#5F9BD3"/>
</g>
<defs>
<clipPath id="clip0_70_194">
<rect width="78" height="78" fill="white" transform="translate(0 21)"/>
</clipPath>
</defs>
</svg>
